<?xml version="1.0" encoding="UTF-8"?>
<svg xmlns="http://www.w3.org/2000/svg" xmlns:xlink="http://www.w3.org/1999/xlink" viewBox="0 0 16 16" width="16px" height="16px">
<g id="surface92555385">
<path style=" stroke:none;fill-rule:nonzero;fill:rgb(50.588238%,94.509804%,98.823529%);fill-opacity:1;" d="M 5.179688 14 C 3.796875 14 2.445312 13.671875 1.222656 13.042969 C 2.65625 13.027344 4.011719 12.550781 5.140625 11.664062 L 5.582031 11.320312 L 5.019531 11.308594 C 3.878906 11.285156 2.871094 10.605469 2.410156 9.585938 C 2.503906 9.59375 2.597656 9.597656 2.691406 9.597656 C 2.988281 9.597656 3.28125 9.558594 3.566406 9.480469 L 4.378906 9.257812 L 3.550781 9.089844 C 2.289062 8.839844 1.351562 7.78125 1.226562 6.519531 C 1.601562 6.675781 2.007812 6.765625 2.417969 6.78125 L 3.117188 6.804688 L 2.535156 6.414062 C 1.722656 5.871094 1.234375 4.964844 1.234375 3.984375 C 1.234375 3.566406 1.324219 3.152344 1.496094 2.777344 C 3.113281 4.628906 5.421875 5.753906 7.875 5.875 L 8.140625 5.890625 L 8.082031 5.632812 C 8.03125 5.414062 8.003906 5.191406 8.003906 4.964844 C 8.003906 3.355469 9.3125 2.046875 10.921875 2.046875 C 11.726562 2.046875 12.503906 2.382812 13.054688 2.96875 L 13.128906 3.050781 L 13.238281 3.027344 C 13.773438 2.921875 14.289062 2.75 14.78125 2.515625 C 14.539062 2.972656 14.183594 3.347656 13.742188 3.613281 L 13.582031 3.707031 L 13.730469 4 L 13.875 3.992188 C 14.269531 3.945312 14.652344 3.863281 15.023438 3.742188 C 14.703125 4.125 14.335938 4.46875 13.925781 4.761719 L 13.839844 4.824219 L 13.84375 4.933594 C 13.847656 5.0625 13.851562 5.195312 13.851562 5.328125 C 13.851562 7.433594 13.039062 9.566406 11.617188 11.175781 C 10.480469 12.464844 8.445312 14 5.179688 14 Z M 5.179688 14 "/>
<path style=" stroke:none;fill-rule:nonzero;fill:rgb(32.941177%,46.27451%,64.705884%);fill-opacity:1;" d="M 10.921875 2.246094 C 11.671875 2.246094 12.394531 2.558594 12.90625 3.105469 L 13.058594 3.265625 L 13.277344 3.222656 C 13.597656 3.160156 13.914062 3.074219 14.222656 2.964844 C 14.054688 3.148438 13.859375 3.308594 13.640625 3.441406 L 13.324219 3.644531 L 13.492188 3.976562 L 13.621094 4.226562 L 13.898438 4.191406 C 14.070312 4.171875 14.234375 4.144531 14.402344 4.109375 C 14.214844 4.285156 14.019531 4.449219 13.808594 4.597656 L 13.636719 4.726562 L 13.644531 4.941406 C 13.648438 5.066406 13.652344 5.195312 13.652344 5.328125 C 13.652344 7.382812 12.855469 9.46875 11.46875 11.042969 C 10.359375 12.300781 8.371094 13.800781 5.179688 13.800781 C 4.089844 13.800781 3.019531 13.589844 2.019531 13.1875 C 3.203125 13.035156 4.308594 12.570312 5.265625 11.820312 L 6.148438 11.128906 L 5.023438 11.105469 C 4.078125 11.089844 3.222656 10.582031 2.746094 9.796875 C 3.042969 9.792969 3.335938 9.75 3.617188 9.671875 L 5.246094 9.226562 L 3.589844 8.894531 C 2.527344 8.679688 1.707031 7.851562 1.476562 6.824219 C 1.777344 6.917969 2.09375 6.96875 2.410156 6.980469 L 3.808594 7.027344 L 2.644531 6.246094 C 1.886719 5.742188 1.4375 4.894531 1.4375 3.984375 C 1.4375 3.699219 1.480469 3.417969 1.566406 3.148438 C 3.203125 4.898438 5.464844 5.957031 7.867188 6.074219 L 8.394531 6.101562 L 8.277344 5.585938 C 8.230469 5.382812 8.207031 5.175781 8.207031 4.964844 C 8.203125 3.464844 9.425781 2.246094 10.921875 2.246094 M 10.921875 1.847656 C 9.203125 1.847656 7.804688 3.242188 7.804688 4.964844 C 7.804688 5.210938 7.832031 5.449219 7.886719 5.675781 C 5.292969 5.546875 2.996094 4.304688 1.457031 2.417969 C 1.191406 2.878906 1.035156 3.414062 1.035156 3.984375 C 1.035156 5.066406 1.585938 6.023438 2.421875 6.582031 C 1.910156 6.5625 1.429688 6.425781 1.011719 6.191406 C 1.011719 6.203125 1.011719 6.21875 1.011719 6.230469 C 1.011719 7.742188 2.085938 9 3.511719 9.289062 C 3.25 9.359375 2.976562 9.398438 2.691406 9.398438 C 2.488281 9.398438 2.292969 9.378906 2.105469 9.339844 C 2.5 10.582031 3.652344 11.480469 5.015625 11.507812 C 3.949219 12.34375 2.605469 12.84375 1.144531 12.84375 C 0.890625 12.84375 0.644531 12.828125 0.398438 12.800781 C 1.78125 13.683594 3.417969 14.199219 5.179688 14.199219 C 10.917969 14.199219 14.054688 9.449219 14.054688 5.328125 C 14.054688 5.191406 14.050781 5.058594 14.042969 4.921875 C 14.652344 4.484375 15.183594 3.933594 15.601562 3.308594 C 15.046875 3.554688 14.472656 3.71875 13.851562 3.796875 L 13.84375 3.785156 C 14.488281 3.398438 14.945312 2.804688 15.179688 2.074219 C 14.578125 2.433594 13.910156 2.691406 13.199219 2.832031 C 12.628906 2.226562 11.820312 1.847656 10.921875 1.847656 Z M 10.921875 1.847656 "/>
</g>
</svg>
